<?xml version="1.0" encoding="utf-8"?>
<!-- Generator: Adobe Illustrator 22.0.1, SVG Export Plug-In . SVG Version: 6.00 Build 0)  -->
<svg version="1.1" id="_x31__side" xmlns="http://www.w3.org/2000/svg" xmlns:xlink="http://www.w3.org/1999/xlink" x="0px" y="0px"
	 viewBox="0 0 56.8 26.9" style="enable-background:new 0 0 56.8 26.9;" xml:space="preserve">
<style type="text/css">
	.st0{fill:#FFA726;}
	.st1{fill:#545CA4;}
	.st2{fill:#FFFFFF;}
</style>
<g>
	<path class="st0" d="M26.5,12c0,0-0.4,0.1-0.9,0c-0.5-0.1-1-0.3-1-0.8V6.7h1.9L26,4.4h-1.4V1l-3.5,0.5v5.6C20.4,5,18.4,3.6,16,3.6
		c-2.3,0-4.3,1.4-5,3.5V5.4c0,0-0.8-1.6-4.2-1.6C6,3.8,5.2,3.9,4.5,4.1V1L1,1.5v12.6h3.5V6.6c0.8-0.1,1.3-0.2,2-0.1
		c0.5,0.1,1,0.3,1,1v6.6H11v-3.3c0.8,2,2.7,3.5,5,3.5c2.3,0,4.3-1.5,5.1-3.6v2.4c0,0,1.3,1,3.4,1c2.1,0,2.6-0.3,2.6-0.3L26.5,12z
		 M16,11.4c-1.5,0-2.2-1.3-2.2-2.5c0-1.2,0.7-2.5,2.2-2.5c1.5,0,2.2,1.3,2.2,2.5C18.2,10.1,17.5,11.4,16,11.4"/>
	<path class="st1" d="M33.3,0.8c-1,0-1.8,0.8-1.8,1.8c0,1,0.8,1.8,1.8,1.8s1.8-0.8,1.8-1.8C35.1,1.6,34.3,0.8,33.3,0.8 M31.6,14h3.5
		V5.2h-3.5V14z M27.2,13.9h3.5V1l-3.5,0.5V13.9z M51,11.9c-1-0.3-1.6-0.8-1.8-1.5h7.2l0-1c0-3.6-2.5-5.8-5.3-5.8
		c-2.3,0-4.2,1.4-5,3.4V5.4c0,0-1.3-1.6-4.3-1.7c-3-0.1-5.7,0.5-5.7,0.5v9.9h3.5V6.6c0.8-0.1,1.3-0.2,2-0.1c0.5,0.1,1,0.3,1,1v6.6
		H46v-3.2c0.8,2,2.7,3.4,5,3.4c2,0,3.5-0.5,4.4-1.8l-1.2-1.2C53,12.1,51.7,12,51,11.9 M51,6.2c1.4,0,2,1,2.1,1.9h-4.2
		C49,7.2,49.6,6.2,51,6.2"/>
</g>
<path class="st1" d="M56.6,25.6c0,0.6-0.5,1.1-1.1,1.1H2.2c-0.6,0-1.1-0.5-1.1-1.1v-7.7c0-0.6,0.5-1.1,1.1-1.1h53.3
	c0.6,0,1.1,0.5,1.1,1.1V25.6z"/>
<g>
	<path class="st2" d="M5.4,24.6v-5.8h4.4V20H6.7v1.2h2.8v1.2H6.7v2.2H5.4z"/>
	<path class="st2" d="M12.3,24.6v-5.8h1.3v5.8H12.3z"/>
	<path class="st2" d="M16.5,24.6v-5.8h1.2l2.7,3.6v-3.6h1.3v5.8h-1.1l-2.8-3.7v3.7H16.5z"/>
	<path class="st2" d="M23.9,24.6l2.5-5.9h1.2l2.5,5.9h-1.3l-0.5-1.3h-2.5l-0.5,1.3H23.9z M26.2,22.2h1.5L27,20.3L26.2,22.2z"/>
	<path class="st2" d="M32.4,24.6v-5.8h1.2l2.7,3.6v-3.6h1.3v5.8h-1.1l-2.8-3.7v3.7H32.4z"/>
	<path class="st2" d="M43.1,24.7c-0.9,0-1.6-0.3-2.1-0.9c-0.6-0.6-0.9-1.3-0.9-2.1c0-0.8,0.3-1.6,0.9-2.1c0.6-0.6,1.3-0.9,2.2-0.9
		c0.5,0,0.9,0.1,1.3,0.2c0.3,0.2,0.7,0.4,1,0.7l-0.8,0.9c-0.2-0.2-0.5-0.4-0.7-0.5c-0.2-0.1-0.5-0.2-0.8-0.2c-0.5,0-0.9,0.2-1.2,0.5
		c-0.3,0.4-0.5,0.8-0.5,1.3c0,0.5,0.2,0.9,0.5,1.3c0.3,0.4,0.7,0.5,1.2,0.5c0.3,0,0.6-0.1,0.8-0.2c0.2-0.1,0.5-0.3,0.7-0.5l0.8,0.9
		c-0.3,0.3-0.7,0.6-1,0.7C44.1,24.6,43.6,24.7,43.1,24.7z"/>
	<path class="st2" d="M47.9,24.6v-5.8h4.4v1.1h-3.1v1.2h2.7v1.1h-2.7v1.2h3.2v1.1H47.9z"/>
</g>
</svg>
